<svg role="img" viewBox="0 0 180 180" xmlns="http://www.w3.org/2000/svg" id="Postmates--Streamline-Simple-Icons" height="180" width="180"><desc>Postmates Streamline Icon: https://streamlinehq.com</desc><title>Postmates</title><path d="m19.0875 112.155 3.3 -9.63 -8.535 5.1899999999999995 -8.100000000000001 -6.6 2.5650000000000004 10.125 -8.317499999999999 5.55 10.125 1.0725 2.97 10.035 3.69 -9.4725 10.14 0.6525zm39.81 -19.575 -8.549999999999999 5.1899999999999995 -8.100000000000001 -6.6 2.5650000000000004 10.1175 -8.31 5.55 10.125 1.0799999999999998 2.97 10.020000000000001 3.6975 -9.4575 10.14 0.6525 -7.845000000000001 -6.930000000000001zm-9.96 36.48 -8.5425 5.1899999999999995 -8.100000000000001 -6.6075 2.5650000000000004 10.125 -8.31 5.55 10.125 1.0799999999999998 2.97 10.035 3.69 -9.4725 10.147499999999999 0.6525 -7.845000000000001 -6.930000000000001zM119.625 50.58l5.3999999999999995 0.3075a0.9225 0.915 0 0 0 0.69 -0.24l13.35 -12.524999999999999a0.24 0.24 0 0 0 -0.15 -0.42l-5.25 -0.3a1.4175 1.4175 0 0 0 -1.05 0.375l-13.155 12.344999999999999a0.2625 0.2625 0 0 0 0.16499999999999998 0.44999999999999996zm56.625 25.327499999999997a23.25 23.235 0 0 0 -37.32 -2.5650000000000004l-8.31 -6.225c2.0775 -0.8475 6.4275 -2.76 6.72 -3.9375 0.16499999999999998 -0.6975 -2.0475000000000003 -1.185 -5.4525 -1.4025l15.592500000000001 -14.219999999999999a0.3525 0.3525 0 0 0 0.06749999999999999 -0.39749999999999996l-3.9675000000000002 -7.47a0.3 0.3 0 0 0 -0.47250000000000003 -0.075l-16.2225 14.775c-4.845 0 -13.47 0.6375000000000001 -15.952499999999999 -0.9225 -3.96 -2.4975 -4.425 -6.165 -5.8875 -7.4775 -1.4625000000000001 -1.3199999999999998 -3.1125 -1.4775 -3.4650000000000003 -2.5949999999999998a0.11249999999999999 0.11249999999999999 0 0 1 0.08249999999999999 -0.1425c0.7649999999999999 -0.19499999999999998 5.025 -1.395 6 -4.35 0.9675 -2.97 -1.0125000000000002 -6.99 -1.3499999999999999 -7.62a0.13499999999999998 0.13499999999999998 0 0 1 0 -0.15l4.53 -3.9525a0.13499999999999998 0.13499999999999998 0 0 0 -0.09749999999999999 -0.22499999999999998l-6.6450000000000005 0.8099999999999999a0.11249999999999999 0.11249999999999999 0 0 1 -0.11249999999999999 0c-0.3525 -0.46499999999999997 -3 -3.63 -8.4075 -1.4175 -6.3149999999999995 2.5500000000000003 -5.152500000000001 8.01 -5.152500000000001 8.01 0.84 5.6475 2.805 6.765000000000001 6 8.61 0.09 0 0.1275 0.15 0 0.20249999999999999 -2.055 1.71 -22.762500000000003 18.705000000000002 -41.8875 25.335a0.375 0.375 0 0 0 0 0.6975c5.535 2.4 22.14 1.1025 27.044999999999998 -1.74a0.12 0.12 0 0 1 0.1875 0.13499999999999998c-0.5399999999999999 2.0475000000000003 -3.435 14.0475 1.1025 17.775000000000002l0.255 0.19499999999999998 -6.1499999999999995 4.335a1.575 1.575 0 0 0 1.1025 2.85l3.165 -0.3525a9.12 9.12 0 0 0 5.4375 -2.5500000000000003l1.1099999999999999 -1.05 8.9475 6.6450000000000005 -1.185 9.4575a23.25 23.235 0 1 0 19.2 12.1725l2.2875 -1.4625000000000001a5.61 5.61 0 0 0 9.135 -5.67l9.465 -2.775a1.5374999999999999 1.5374999999999999 0 0 0 1.1025 -1.7999999999999998l-0.06 -0.3075a1.5525 1.5525 0 0 0 -1.5225000000000002 -1.23h-8.032499999999999a0.13499999999999998 0.13499999999999998 0 0 1 -0.11249999999999999 -0.075l-2.415 -5.4525 4.8 -28.215 7.755 5.7525a23.25 23.235 0 1 0 39.18 0zm-64.455 -16.71 10.95 -0.1875 1.44 2.7075c-2.535 0.09 -5.175 0.2925 -7.7475 0.615 -1.8525 0.22499999999999998 -4.0875 -2.1525 -4.755 -2.9025a0.15 0.15 0 0 1 0.11249999999999999 -0.22499999999999998zm-16.605 16.3875c0.915 -1.5299999999999998 6.2325 -10.379999999999999 6.9 -13.4025a0.13499999999999998 0.13499999999999998 0 0 1 0.22499999999999998 -0.0525c3.5324999999999998 4.125 11.01 6.495 11.587499999999999 6.6375a0.06749999999999999 0.06749999999999999 0 0 0 0.06 0l9.6 -2.955 2.1525 1.5975 -10.05 9.217500000000001a6.885000000000001 6.885000000000001 0 0 0 -3.9000000000000004 -1.71c-5.775 -0.735 -14.8125 0.57 -16.455 0.825a0.12 0.12 0 0 1 -0.045 -0.1575zm24.825 30.2175a5.7 5.7 0 0 0 -1.8675 0.5549999999999999l-6.862500000000001 -5.25a0.11249999999999999 0.11249999999999999 0 0 1 0 -0.1425l3.435 -7.109999999999999a0.12 0.12 0 0 1 0.22499999999999998 0l5.64 8.85zm-14.565 -7.687499999999999 -4.695 -3.5100000000000002 9 -8.25zm0 -12.1725 -7.305 6.705 -7.3275 -5.4525a84.48750000000001 84.43499999999999 0 0 0 14.775 -1.2zm-5.835 11.647499999999999 4.8225 3.585 -0.5775 1.5825a2.145 2.145 0 0 0 1.2899999999999998 2.7675l10.05 3.66 0.3 0.22499999999999998a5.6475 5.64 0 0 0 -0.1425 3.5475l-2.2125 1.44a23.174999999999997 23.16 0 0 0 -14.3925 -9.127500000000001zm-1.5599999999999998 12.4575a18.45 18.435000000000002 0 0 1 10.9875 6.9375l-12.877500000000001 8.190000000000001zm6.165 33.6a18.45 18.45 0 1 1 -9.262500000000001 -33.975l-2.3175 18.419999999999998a1.605 1.605 0 0 0 0.72 1.5225000000000002 1.5525 1.5525 0 0 0 1.6725 0l15.6675 -9.96a18.465 18.45 0 0 1 -6.495 23.985zm13.725000000000001 -60.3375a0.075 0.075 0 0 1 0 -0.075 9.9675 9.96 0 0 0 -0.47250000000000003 -3.8850000000000002l8.4975 -7.7475 -3.675 21.5625zm48.644999999999996 20.6325a18.45 18.435000000000002 0 0 1 -25.635 -25.215l14.625 10.89a1.5525 1.5525 0 0 0 1.7774999999999999 0.06 1.47 1.47 0 0 0 0.40499999999999997 -0.375 1.5599999999999998 1.5599999999999998 0 0 0 -0.32249999999999995 -2.2125l-14.6475 -10.875a17.8875 17.88 0 0 1 3.9450000000000003 -3.3225000000000002 18.45 18.45 0 1 1 19.830000000000002 31.102500000000003Z" fill="#000000" stroke-width="7.5"></path></svg>